/* XPM */
static char * vast_xpm[] = {
"32 26 291 2",
"  	c None",
". 	c #FFFFFF",
"+ 	c #FEFEFE",
"@ 	c #FBFCFC",
"# 	c #F5F9F8",
"$ 	c #D0E3E0",
"% 	c #98C2BD",
"& 	c #99C2BD",
"* 	c #96C0BB",
"= 	c #96C0BC",
"- 	c #97C1BC",
"; 	c #CDE2DF",
"> 	c #F0F6F5",
", 	c #C4DCD9",
"' 	c #9FC6C2",
") 	c #ADCFCB",
"! 	c #DDEBE9",
"~ 	c #D0E3E1",
"{ 	c #D1E3E1",
"] 	c #C7DDDA",
"^ 	c #D2E4E2",
"/ 	c #D8E8E6",
"( 	c #B3D2CE",
"_ 	c #9FC6C1",
": 	c #C2DBD8",
"< 	c #EFF5F4",
"[ 	c #ECF3F3",
"} 	c #9EC6C1",
"| 	c #E1EDEC",
"1 	c #ABCDC9",
"2 	c #B1D1CD",
"3 	c #F6F9F9",
"4 	c #B8D5D1",
"5 	c #BDD8D5",
"6 	c #A4C9C5",
"7 	c #86B7B2",
"8 	c #EAF3F2",
"9 	c #94BFBA",
"0 	c #E9F2F0",
"a 	c #80B4AE",
"b 	c #CFE3E1",
"c 	c #C7DEDB",
"d 	c #7BB1AB",
"e 	c #ACCECA",
"f 	c #9AC3BE",
"g 	c #67A59D",
"h 	c #60A199",
"i 	c #AECFCB",
"j 	c #9CC5C0",
"k 	c #89B9B3",
"l 	c #559A93",
"m 	c #4C958D",
"n 	c #D8E7E6",
"o 	c #479189",
"p 	c #70AAA3",
"q 	c #479289",
"r 	c #459188",
"s 	c #6FA9A3",
"t 	c #72ABA4",
"u 	c #5FA099",
"v 	c #8CBAB5",
"w 	c #71ABA4",
"x 	c #FCFCFC",
"y 	c #7CB1AC",
"z 	c #88B8B2",
"A 	c #EBF3F2",
"B 	c #E0EDEB",
"C 	c #B0D0CD",
"D 	c #9DC5C1",
"E 	c #92BEB9",
"F 	c #F9FAFA",
"G 	c #FDFDFD",
"H 	c #FBFDFC",
"I 	c #CFE3E0",
"J 	c #DBE9E8",
"K 	c #8EBBB6",
"L 	c #BFD8D6",
"M 	c #A8CBC7",
"N 	c #CEE1E0",
"O 	c #97C2BC",
"P 	c #9CC4C0",
"Q 	c #82B6AF",
"R 	c #9FC5C1",
"S 	c #F6FAF9",
"T 	c #D2E5E3",
"U 	c #CDE1DF",
"V 	c #D1E3E2",
"W 	c #D3E4E2",
"X 	c #E9F2F1",
"Y 	c #3C8B82",
"Z 	c #A5CAC5",
"` 	c #DEEBE9",
" .	c #B7D4D1",
"..	c #91BEB8",
"+.	c #D6E6E4",
"@.	c #9DC4C1",
"#.	c #DFECEA",
"$.	c #C3DBD8",
"%.	c #D5E6E4",
"&.	c #F8FBFB",
"*.	c #D4E5E4",
"=.	c #75ADA7",
"-.	c #EDF4F4",
";.	c #FDFEFE",
">.	c #F0F6F6",
",.	c #D9E8E6",
"'.	c #C5DCDA",
").	c #66A59E",
"!.	c #84B6B1",
"~.	c #DDEAE9",
"{.	c #78AFA9",
"].	c #A8CCC7",
"^.	c #6EA9A2",
"/.	c #C1DAD7",
"(.	c #C5DCD9",
"_.	c #F7FAFA",
":.	c #EFF5F5",
"<.	c #86B6B1",
"[.	c #B2D1CE",
"}.	c #E3EEED",
"|.	c #65A39B",
"1.	c #8FBCB7",
"2.	c #F5F9F9",
"3.	c #CFE2E1",
"4.	c #80B4AF",
"5.	c #A9CCC7",
"6.	c #277F75",
"7.	c #BBD7D3",
"8.	c #F9FBFB",
"9.	c #7CB1AB",
"0.	c #EEF5F4",
"a.	c #EEF4F4",
"b.	c #73ACA5",
"c.	c #EEF4F3",
"d.	c #F3F8F7",
"e.	c #257E74",
"f.	c #A0C6C2",
"g.	c #81B4AF",
"h.	c #BAD6D3",
"i.	c #C0DAD6",
"j.	c #87B7B2",
"k.	c #AECECB",
"l.	c #D4E6E4",
"m.	c #EAF2F1",
"n.	c #80B3AE",
"o.	c #EDF4F3",
"p.	c #EEF5F3",
"q.	c #82B4AF",
"r.	c #469189",
"s.	c #CBE0DE",
"t.	c #61A19A",
"u.	c #B0D0CC",
"v.	c #E1ECEB",
"w.	c #CAE0DD",
"x.	c #8BBAB5",
"y.	c #B4D3CE",
"z.	c #ECF4F3",
"A.	c #BDD8D4",
"B.	c #D5E5E3",
"C.	c #BED9D6",
"D.	c #F8FBFA",
"E.	c #95C0BC",
"F.	c #ECF3F2",
"G.	c #DEEBEA",
"H.	c #237D72",
"I.	c #9BC3BF",
"J.	c #ABCDC8",
"K.	c #BCD7D4",
"L.	c #8DBAB5",
"M.	c #80B3AD",
"N.	c #BBD6D3",
"O.	c #C8DEDB",
"P.	c #E4EEEE",
"Q.	c #7DB2AC",
"R.	c #69A69F",
"S.	c #C6DDDB",
"T.	c #9BC4BF",
"U.	c #B4D2CE",
"V.	c #DAE8E7",
"W.	c #77AEA8",
"X.	c #E8F1F0",
"Y.	c #CCE1DF",
"Z.	c #D7E7E5",
"`.	c #90BDB8",
" +	c #F5FAF9",
".+	c #95C0BB",
"++	c #70AAA4",
"@+	c #AFD0CC",
"#+	c #CADFDC",
"$+	c #8BBAB4",
"%+	c #E9F1F1",
"&+	c #F4F8F7",
"*+	c #FAFCFB",
"=+	c #C9DEDC",
"-+	c #B5D3D0",
";+	c #A2C8C3",
">+	c #CBDFDD",
",+	c #C3DBD9",
"'+	c #7CB2AB",
")+	c #FAFBFB",
"!+	c #D3E5E3",
"~+	c #CADFDD",
"{+	c #A3C9C3",
"]+	c #569A93",
"^+	c #BFD9D5",
"/+	c #99C3BE",
"(+	c #E7F0EF",
"_+	c #FFFEFE",
":+	c #CCE0DE",
"<+	c #E4EFED",
"[+	c #DBE9E7",
"}+	c #6FAAA4",
"|+	c #33867C",
"1+	c #64A29C",
"2+	c #C3DCD9",
"3+	c #93BEBB",
"4+	c #F4F8F8",
"5+	c #ABCDCA",
"6+	c #C0DAD7",
"7+	c #C4DCDA",
"8+	c #FAFCFC",
"9+	c #E0ECEA",
"0+	c #74ACA6",
"a+	c #FEFFFF",
"b+	c #4C958C",
"c+	c #C0D9D6",
"d+	c #589C94",
"e+	c #34867D",
"f+	c #B3D1CE",
"g+	c #C6DEDA",
"h+	c #BED8D5",
"i+	c #CEE2E0",
"j+	c #D1E4E2",
"k+	c #2E837A",
"l+	c #49938A",
"m+	c #75ACA6",
"n+	c #36887E",
"o+	c #E6F0EF",
"p+	c #DCE9E8",
"q+	c #CCE1DE",
"r+	c #E5F0EE",
"s+	c #B4D2CF",
"t+	c #E4EFEE",
"u+	c #B2D1CD",
"v+	c #81B4AE",
"w+	c #97C2BD",
"x+	c #65A49C",
"y+	c #A1C7C3",
"z+	c #8EBCB7",
"A+	c #94BFBB",
"B+	c #ACCDC9",
"C+	c #BDD7D4",
"D+	c #6FAAA3",
"E+	c #FBFDFD",
"F+	c #F8FAFA",
"G+	c #73ACA6",
"H+	c #B6D4D1",
"I+	c #64A39C",
"J+	c #86B7B1",
"K+	c #88B8B3",
"L+	c #64A39B",
"M+	c #FFFEFF",
"N+	c #F1F7F6",
"O+	c #EFF6F5",
"P+	c #F4F9F8",
"Q+	c #FCFDFD",
"R+	c #E1EDEB",
"S+	c #E2EEEC",
"T+	c #F1F6F6",
"U+	c #DCEAE8",
"V+	c #C9DFDC",
"W+	c #E7F1F0",
"X+	c #D9E8E7",
"Y+	c #F2F7F7",
"Z+	c #D6E6E5",
"`+	c #E0ECEB",
" @	c #DBEAE8",
".@	c #EAF3F1",
"+@	c #D7E6E5",
"@@	c #D7E7E6",
"#@	c #CBE0DD",
"$@	c #F6FAFA",
"%@	c #B8D4D1",
"&@	c #8ABAB4",
"*@	c #F0F5F4",
"=@	c #C9DFDD",
"-@	c #BBD7D4",
";@	c #DDEBEA",
">@	c #A9CDC8",
",@	c #B7D5D1",
"'@	c #C1DBD7",
". . . . . . . + + . @ # $ % & * = % - ; # @ . + + . . . . . . . ",
". . . . . . . + . > , ' ) ! ~ { ] ^ / ( _ : < . + . . . . . . . ",
". . . . . . + . [ % { } | 1 2 3 4 5 6 , 7 8 9 0 . + . . . . . . ",
". . . . . + . . a b c d . e f g h % i ~ j . # k @ . + . . . . . ",
". . . . + . . l # m n . o ( p q r s e t . + + . u . . + . . . . ",
". . . . + . v . w x { y z A . . . B C D E F . G H 7 . + . . . . ",
". . . + . I J K . L 6 M . . . # N O P Q R S . . . T U . + . . . ",
". . . . G ^ V W X Y Z . + . `  ...+.@.#.. $.%.. . #.%.G . . . . ",
". . . . &.*.=.-.;.%.>.. . ,.'.).!.` ~.{.].^./.. . . (._.. . . . ",
". . . + :.<.[.}.|.1.. . 2.3.4.M A  .5.6.7.8.> . . . 9.0.+ . . . ",
". . . . a.b.c.d.e.= . . f.g.h.| i.j.E . k.l.m.@ . . n.o.. . . . ",
". . . . p.q.;.X r. .. s.t.u.v.w.].x.y.z.A.B.C.D.+ . E.F.. . . . ",
". . . . a.b.G.s.H.I.}.=.J.K.Z L.M.N.O.;.H @ G P.. . Q.0.. . . . ",
". . . + :.j.e d.R.k S.<.T.U.V.( W.h.%.. + X.Y.,.. . Q.0.+ . . . ",
". . . . D.Z.`.T. +.+++@+#++.$+:.. %+. + + &+*+. + . w._.. . . . ",
". . . . + =+, -+f ;+I.M >+,+_ '+)+. + . + !+,.. . V ~++ . . . . ",
". . . + . G.0.{+< '+]+Z.. 8.^+/+V (+. _+. :+~+. . <+[+. + . . . ",
". . . . . . }+S |+1+2+3+4++ <+5+}.6+7+8+8.U 9++ z.0+. . . . . . ",
". . . . . + .  .a+b+h.c+f d+e+f+g+. (+P 1 . . ;.h+. + + . . . . ",
". . . . + . . A i+j+' k+l+7 m+n+o+. p+. . . 4+q+r+. a+. . . . . ",
". . . . . . + . > s+( t+u+v+w+x+y+z+A+B+. U u+-.. + . . . . . . ",
". . . . . + . + . . C+D+. ;.8.8+E+8+F+. G+H+. . + . + . . . . . ",
". . . . . . . . . _+. . (.I+J+N.N.K+L+$.M+. _+. . . . . . . . . ",
"> > 0.N+O+O+> > 0.O+> > P+Q+> R+S+T+Q+d.> :.>.0.> O+> > :.< > N+",
"U+Z.S V+#.W+X+G.Y+(+G.0.Z+` N+F.`+ @#..@| X.Z.> U+t++@! X.o.@@V+",
"_ 5 #@i.$@%@C+$ 3 - i &@*@y+[ 7.B =@-@R+;@| e :.I.>@,@'@/ 2+! /."};
