/* XPM */
static char * vast_xpm[] = {
"40 32 328 2",
"  	c #FFFFFF",
". 	c #FEFEFE",
"+ 	c #DAE9E7",
"@ 	c #94C0BB",
"# 	c #92BEB9",
"$ 	c #91BEB9",
"% 	c #93BFBA",
"& 	c #D7E8E6",
"* 	c #BBD7D4",
"= 	c #76AEA8",
"- 	c #AACDC9",
"; 	c #E3EEED",
"> 	c #CDE1DF",
", 	c #CEE1DF",
"' 	c #E2EEEC",
") 	c #AECFCB",
"! 	c #75ADA6",
"~ 	c #B8D5D1",
"{ 	c #F7FAFA",
"] 	c #71ABA4",
"^ 	c #D9E8E6",
"/ 	c #BAD6D3",
"( 	c #80B4AE",
"_ 	c #6BA8A1",
": 	c #98C2BD",
"< 	c #D1E4E1",
"[ 	c #A9CDC8",
"} 	c #ABCDC9",
"| 	c #559B93",
"1 	c #7CB2AB",
"2 	c #BCD7D4",
"3 	c #DDEBEA",
"4 	c #6DA9A2",
"5 	c #F4F8F8",
"6 	c #E4EFEE",
"7 	c #579C94",
"8 	c #C7DEDB",
"9 	c #569C94",
"0 	c #C6DDDA",
"a 	c #BED8D6",
"b 	c #B7D5D1",
"c 	c #9CC4BF",
"d 	c #F8FBFB",
"e 	c #C3DCD9",
"f 	c #2D8279",
"g 	c #5D9E97",
"h 	c #E1EDEB",
"i 	c #ECF4F3",
"j 	c #75AEA7",
"k 	c #71ABA5",
"l 	c #8ABAB5",
"m 	c #A0C7C3",
"n 	c #72ABA4",
"o 	c #4A948B",
"p 	c #4E968E",
"q 	c #6CA8A1",
"r 	c #B7D4D0",
"s 	c #9EC6C1",
"t 	c #B2D2CE",
"u 	c #82B5AF",
"v 	c #E9F2F1",
"w 	c #FAFCFB",
"x 	c #4F978F",
"y 	c #408E85",
"z 	c #95BFBB",
"A 	c #F9FBFB",
"B 	c #4B948C",
"C 	c #A4C9C5",
"D 	c #449087",
"E 	c #428F86",
"F 	c #4A938B",
"G 	c #A0C7C2",
"H 	c #76AEA7",
"I 	c #FEFFFF",
"J 	c #5A9D96",
"K 	c #FDFDFD",
"L 	c #B0D0CD",
"M 	c #8EBCB7",
"N 	c #5B9E96",
"O 	c #C6DDDB",
"P 	c #FEFFFE",
"Q 	c #FFFFFE",
"R 	c #BDD8D5",
"S 	c #96C0BC",
"T 	c #B0D0CC",
"U 	c #EFF4F4",
"V 	c #E6F0EF",
"W 	c #F2F7F6",
"X 	c #F5F9F8",
"Y 	c #81B4AE",
"Z 	c #C1DAD8",
"` 	c #CFE3E0",
" .	c #64A39C",
"..	c #FCFDFD",
"+.	c #BFDAD6",
"@.	c #74ADA6",
"#.	c #78AFA9",
"$.	c #9DC6C0",
"%.	c #3E8C83",
"&.	c #E4F0EE",
"*.	c #E0EDEB",
"=.	c #388980",
"-.	c #FDFEFE",
";.	c #529890",
">.	c #73ACA6",
",.	c #DFECEA",
"'.	c #ABCDCA",
").	c #7AB1AA",
"!.	c #EBF2F2",
"~.	c #78B0A9",
"{.	c #F1F6F6",
"].	c #36887F",
"^.	c #EAF2F1",
"/.	c #CCE1DF",
"(.	c #D9E8E7",
"_.	c #F4F9F8",
":.	c #2C8278",
"<.	c #3B8B82",
"[.	c #FDFEFD",
"}.	c #B9D5D2",
"|.	c #A3C9C5",
"1.	c #89B9B3",
"2.	c #DEEBE9",
"3.	c #D7E7E6",
"4.	c #7FB3AE",
"5.	c #DEECEA",
"6.	c #77AEA7",
"7.	c #E8F1F0",
"8.	c #B7D4D2",
"9.	c #3C8C83",
"0.	c #DEEBEA",
"a.	c #DBEAE8",
"b.	c #97C2BD",
"c.	c #D5E6E4",
"d.	c #5DA098",
"e.	c #79B0AA",
"f.	c #8FBCB7",
"g.	c #69A7A0",
"h.	c #A6CBC6",
"i.	c #8ABAB4",
"j.	c #ADCECA",
"k.	c #60A099",
"l.	c #FBFCFC",
"m.	c #7BB1AB",
"n.	c #83B5AF",
"o.	c #65A39C",
"p.	c #FAFCFC",
"q.	c #DEECEB",
"r.	c #CFE2E0",
"s.	c #599D96",
"t.	c #A9CCC8",
"u.	c #EEF5F4",
"v.	c #D0E3E0",
"w.	c #94BFBA",
"x.	c #096D62",
"y.	c #AACDC8",
"z.	c #C9DFDC",
"A.	c #549A91",
"B.	c #3F8E84",
"C.	c #F0F6F5",
"D.	c #DCEAE8",
"E.	c #298076",
"F.	c #449088",
"G.	c #CEE2E0",
"H.	c #8AB9B4",
"I.	c #96C1BC",
"J.	c #D4E6E4",
"K.	c #BFD9D6",
"L.	c #D2E4E2",
"M.	c #B1D1CD",
"N.	c #7AB0A9",
"O.	c #E8F2F1",
"P.	c #589C94",
"Q.	c #EDF4F3",
"R.	c #D1E4E2",
"S.	c #80B3AE",
"T.	c #F3F8F7",
"U.	c #75ADA7",
"V.	c #8CBBB6",
"W.	c #C0D9D7",
"X.	c #CEE3E0",
"Y.	c #519790",
"Z.	c #F8FBFA",
"`.	c #A6CAC6",
" +	c #FBFDFC",
".+	c #B0CFCC",
"++	c #67A59E",
"@+	c #5C9E97",
"#+	c #48928A",
"$+	c #87B8B2",
"%+	c #B7D4D1",
"&+	c #C1DAD7",
"*+	c #ACCECA",
"=+	c #96C1BB",
"-+	c #9FC7C2",
";+	c #C5DDD9",
">+	c #D2E5E2",
",+	c #ABCECA",
"'+	c #6BA7A1",
")+	c #439087",
"!+	c #C3DBD9",
"~+	c #C4DCD9",
"{+	c #288075",
"]+	c #6FAAA3",
"^+	c #ACCEC9",
"/+	c #B6D4D0",
"(+	c #DDEAE9",
"_+	c #E1EDEC",
":+	c #4B958C",
"<+	c #50978F",
"[+	c #90BEB8",
"}+	c #A5C9C6",
"|+	c #80B3AD",
"1+	c #BBD7D3",
"2+	c #A3C8C4",
"3+	c #F2F7F7",
"4+	c #A3C9C4",
"5+	c #87B8B3",
"6+	c #F5F9F9",
"7+	c #D0E3E1",
"8+	c #48938A",
"9+	c #A4C8C5",
"0+	c #37887F",
"a+	c #84B7B1",
"b+	c #EFF6F5",
"c+	c #8FBDB8",
"d+	c #69A6A0",
"e+	c #BED9D6",
"f+	c #D7E7E5",
"g+	c #9DC5C1",
"h+	c #B8D4D1",
"i+	c #E7F0EF",
"j+	c #79AFA9",
"k+	c #99C2BE",
"l+	c #97C1BC",
"m+	c #78AFA8",
"n+	c #DDEBE9",
"o+	c #BBD6D3",
"p+	c #E5F0EE",
"q+	c #459188",
"r+	c #7DB2AC",
"s+	c #B8D5D2",
"t+	c #A1C7C3",
"u+	c #9EC5C0",
"v+	c #519890",
"w+	c #4D958E",
"x+	c #C5DDDA",
"y+	c #ADCFCA",
"z+	c #91BEB8",
"A+	c #3E8D84",
"B+	c #71AAA4",
"C+	c #9FC6C1",
"D+	c #7AB0AA",
"E+	c #3A8B82",
"F+	c #36887E",
"G+	c #7FB2AD",
"H+	c #8DBBB7",
"I+	c #D6E7E4",
"J+	c #A9CCC9",
"K+	c #E0ECEB",
"L+	c #E7F1F0",
"M+	c #82B5B0",
"N+	c #F1F7F6",
"O+	c #AACCC8",
"P+	c #F8FAFA",
"Q+	c #B5D3D0",
"R+	c #418F85",
"S+	c #77AFA8",
"T+	c #62A29B",
"U+	c #49938B",
"V+	c #E5EFEE",
"W+	c #C0DAD6",
"X+	c #86B8B2",
"Y+	c #247E73",
"Z+	c #EBF3F2",
"`+	c #287F76",
" @	c #19776C",
".@	c #287F75",
"+@	c #31857B",
"@@	c #D4E5E3",
"#@	c #E5F0EF",
"$@	c #C7DEDC",
"%@	c #61A29A",
"&@	c #8DBBB6",
"*@	c #61A299",
"=@	c #DAE9E8",
"-@	c #C0D9D6",
";@	c #CFE3E1",
">@	c #EDF4F4",
",@	c #4F968E",
"'@	c #69A79F",
")@	c #7FB4AE",
"!@	c #77AEA8",
"~@	c #9BC4C0",
"{@	c #A4C8C4",
"]@	c #569B93",
"^@	c #9BC3BF",
"/@	c #FBFDFD",
"(@	c #93BFBB",
"_@	c #CADFDD",
":@	c #9AC3BE",
"<@	c #569A93",
"[@	c #65A49C",
"}@	c #C8DEDB",
"|@	c #F3F7F7",
"1@	c #ECF3F2",
"2@	c #CBE0DE",
"3@	c #C0DAD7",
"4@	c #DBE9E8",
"5@	c #D3E5E3",
"6@	c #EEF4F4",
"7@	c #E2EEED",
"8@	c #D1E3E1",
"9@	c #FFFEFE",
"0@	c #99C3BE",
"a@	c #BED8D5",
"b@	c #88B8B3",
"c@	c #D5E6E3",
"d@	c #88B9B3",
"e@	c #F7FAF9",
"f@	c #84B6B1",
"g@	c #E3EFED",
"h@	c #AFD0CC",
"i@	c #DFECEB",
"j@	c #89B9B4",
"k@	c #9EC5C1",
"l@	c #93C0BB",
"m@	c #98C3BD",
"                          .   + @ # # # # $ $ % &   .                           ",
"                      .   * = -     ; > , '     ) ! ~   .                       ",
"                    . { ] ^   / ( _ : < [ } | 1 2   3 4 5 .                     ",
"                    6 7   8 9   0   a   b   c d e f     g h                     ",
"                  i j   k i l   m b n o p q r s > t . .   u v                   ",
"                w x   y z { A B C ) o D E F ) G H       I   J d                 ",
"            .   F   7 K   L M N O     P Q   R O S T U     .   y   .             ",
"              V W + X Y Z `  .  .       ..+.@.#.$.%.&.        d *.              ",
"              =.-.;.    L >.  .       ,.'.).!.) ~.  i {.        ].              ",
"          . ^./.(.K _.:.<.[..       }.|.1.2.3.4.    5.6..     . + 7..           ",
"            8.  9.    0.a.        b.c.d.e.  f.  g.h.i.7 .         j.            ",
"            k.l.m.6 n.o.p..     q.r.s.t.u.- v.w.x.y.  z.          A.            ",
"            B.C.D...E.F.    . G.H.I.J./.K.L.M.N.  2 O.A         . F.            ",
"          . P.Q.' R.E S.    T.U.V.: W.C.X.Y.:.  Z.`.H. +.+.       ++l.          ",
"          [.@+i   V #+$+    `. .%+&+  *+=+z.-+;+v >+^   ,+  .     '+w           ",
"            )+C.!+~+{+P.  * ]+^+* /+I.H.U.(+!       ..l.  _+    P :+            ",
"            <+d [+  ++D   }+|+% 1+2+3+4+++G.5+.     6+7+/.+       8+            ",
"            9+  0+a+b+7+c+d+e+f+Q.g+h+5   G.           +  .       :             ",
"          . i+u.Z   *.o j+k+k+l+  ] m+n+            C.o+        6+p+.           ",
"            . q+ +U.r+a.s+c+K.5 t+  u+v+7.        .   V.        w+..            ",
"              x+. y+A z+A+B+'       C+*+> 7+  .       D+    .   1+              ",
"              -.E+  F+G+A+  H+C.    I+J+K+L+M+N+-.-.L+O+  .   y K               ",
"              . P+Q+  v+R+  D.` S+T+U+V+W+.   7+X+%   . .   &+5                 ",
"                  r.q.  Y+Z+`+ @#+@+.@+@>+    @@      .   #@x+                  ",
"                .   8 $@  %@v+f.: 0.&@*@=@    -@        ;@R   .                 ",
"                  .   >@,@  . x+f.'@- ]+: )@!@~@{@.   ]@^.  .                   ",
"                        w ^@>.    /@A -.-...p.{ . #.(@A                         ",
"                        .   5 _@++A.: 2 2 :@<@[@}@|@  .                         ",
"                                    i ' ' 1@                                    ",
"a.a.a.a.a.a.a.a.a.a.a.a.a.a.a.a.a.a.a.a.a.a.a.a.a.a.a.a.a.a.a.a.a.a.a.a.a.a.a.a.",
"+ 2@Q.  K._+  3@L+_+  ^._+(+u.4@5@6@  Q.6 (.7@,.T.L+;   &+  ^ #@0.8@,.Z+9@3.(.&+",
"0@} J.a@~+d c.b@+ v.  !@c@M d@e@f@6 ; /+g@h@P+~@i+i@G.A j@5 k@).W l@;+c.a.m@  * "};
